<svg xmlns="http://www.w3.org/2000/svg" viewBox="0 0 1280 577.7" style="enable-background:new 0 0 1280 577.7">
  <style>
    .st0{display:none}.st1{display:inline;fill:url(#XMLID_53_)}.st2{fill:#fff}.st3{fill:#c0e2ec}.st4{fill:url(#XMLID_54_)}.st5{fill:url(#XMLID_55_)}.st6{fill:url(#XMLID_56_)}.st7{fill:url(#XMLID_57_)}.st8{fill:url(#XMLID_58_)}.st9{fill:url(#XMLID_60_)}.st10{fill:url(#XMLID_66_)}.st11{fill:#fbfcfc}.st12{fill:#acb2b2}.st13{fill:url(#XMLID_67_)}.st14{fill:url(#XMLID_68_)}.st15{fill:#111313}.st16{fill:#ff6767}.st17{fill:url(#XMLID_69_)}.st18{fill:#ff4d4d}.st19{fill:url(#XMLID_70_)}.st20{fill:url(#XMLID_72_)}.st21{fill:url(#XMLID_74_)}.st22{fill:url(#XMLID_87_)}.st23{fill:#080909}.st24,.st25,.st26{display:inline;fill:url(#XMLID_91_)}.st25,.st26{fill:url(#XMLID_92_)}.st26{fill:#7fc8f4}.st27{display:none;fill:#111313}
  </style>
  <g id="Layer_2" class="st0">
    <linearGradient id="XMLID_53_" gradientUnits="userSpaceOnUse" x1="640" y1="-222.305" x2="640" y2="277.695">
      <stop offset="0" style="stop-color:#0755ff"/>
      <stop offset=".999" style="stop-color:#3abaff"/>
    </linearGradient>
    <path id="XMLID_1_" class="st1" d="M0-222.3h1280v500H0z"/>
  </g>
  <g id="Layer_6">
    <path id="XMLID_51_" class="st2" d="M0 198.4h1280v375.7H0z"/>
  </g>
  <g id="Layer_3">
    <path id="XMLID_20_" class="st2" d="M0 176.6l88.4-79.3h8.3l25.9 32.5 19.2-4.2 45.1 22.5 12.5-11.3 17.5 3.8 62.6-64.2 11.7 5.8 7.5-8.6 6.5 3.6h7.5l6.5-7.2 24.7 6.5 15.7-2.3 44.8 11.4 20.3-4.1 5.7-.7L438 83l26.5-8.6 5-8.7 23.1-18.3 6.7-8.2 18.1-10.4 21.3-16.5h1.4L577.8 34l16.3.4 16.4 8.1 4.2-.1 2.5.3 12.2 12.4 18.9 7.6 4.3-.3 9 6.4 34.9 19 17.5-.4 5 1.4 15.6-3.1 27.5 18.6 14.2.1 6.3 1.7 12.8-5.6 17.7-3.1 21.4-14.3 2.2.1 29.3 9.9s5-.3 5.4 0c.4.3 9-.4 9-.4l13.6-4 11.5 3.8 15.7-9.7 3.2.3 10.1 4.9 22.8 6.5 17 13.9 25.9 6.3 14.5-1.5 21.8-7.8 16.8 5.8 8.3-2.8 5.6.8 11.7 6 16.3-8.8c.4-.1 18 8.7 18 8.7l15.3 12.6 16.3 4.3 13.2-4.3 11.6 6.7 11.4 13.3 13.2-3.8 11.8 3.8 14.3 15.6 54.7 26.3-107 123-76.5-37.5-18.4 7.2-16.1 2.7-46.7-25-33.4-13.3-9.5 11.1-1.7 30.6-42.7 37.2-17.2 6.1-31.1-15-30 3.3s-16.1 10-17.8 11.7-21.1 21.7-21.1 21.7l-31.7 17.8-44.1 22.3-.6-18.9 11.7-16.7 10-16.1h-12.8l-41.7-5.6-29.5 11.7-35 8.9s-54 17.2-55.6 17.2-26.1 3.9-26.1 3.9l-15-15s-60.1 10-61.7 10c-1.7 0-55.1 15-57.3 15.6s-32.8-2.8-32.8-2.8l-30-13.9s-56.7 4.4-58.4 5c-1.7.6-55.1-37.3-55.1-37.3l-34.5 2.8s-26.7 6.1-28.9 6.7c-2.2.6-42.8 15.6-45.6 16.7-2.8 1.1-29.5-7.8-32.3-8.9-2.8-1.1-28.9-10.6-31.1-10-2.2.6-37.3 22.8-37.3 22.8l-30.4.5V176.6z"/>
    <path id="XMLID_19_" class="st2" d="M1146.4 142.2c-4.7-7-24.9-20.4-54.9-34.2l-13.8 7.4-11.7-6-5.6-.8-8.3 2.8-16.8-5.8-21.8 7.8-14.5 1.5-25.9-6.3-17-13.9-22.8-6.5-10.1-4.9-3.2-.3-15.7 9.7-11.5-3.7-13.6 4s-8.6.7-9 .4c-.4-.3-5.4 0-5.4 0l-29.3-9.9-2.2-.1-21.4 14.3-17.7 3.1-12.8 5.6-6.3-1.7-14.2-.1L733.4 86l-15.7 3-5-1.4-17.5.4-32.4-17.7C652.3 79.7 642.7 89 642.7 89l9.4 11.7 22 7.8 27.3 6.4s1.7 17.8 2.3 18.2c.6.3-2.3 33.1-2.8 34.8-.6 1.7-16.9 27.9-16.9 27.9s-4.3 16.7-3.4 19.1c.9 2.4 40.1-47.6 40.1-47.6s8.6-7.5 14.2-6.2c5.6 1.3 30.6-3.4 32.8-3.6 2.3-.2 3.6-26.5 3.6-26.5s18.7-11.8 18.5-12.4c-.2-.6 29.5-10.2 29.5-10.2v19l9.6-2 11.9-22.1 11.4 8.5 55.4 81s21 26 21.5 30c.6 4 26.5 5.7 26.5 5.7l-7.3-11.7 27.6-11.8-4.9-15 44.9-40.1s12.8 19.1 14 20.3c1.1 1.2 23.2 0 23.2 0s32.3 44.1 34.5 44.1c2.3 0 36.2 6.2 40.2 5.4 4-.8 39.1 69.9 39.1 69.9V160.7c-7.8-6.3-15.7-11.5-20.5-18.5z"/>
    <path id="XMLID_18_" class="st2" d="M428.7 114.6l13.3 5.1s-6.6-21.9-13.1-38.7l-4.3.6-20.3 4.1-44.8-11.4-15.7 2.3-24.7-6.6-6.5 7.2h-7.5l-6.5-3.6-7.5 8.6-11.7-5.8-62.6 64.2-17.5-3.8-12.5 11.3-45.1-22.5-19.2 4.2-25.7-32.5h-8.3L0 176.6v23.9s43.6-9.7 44.2-10.9c.7-1.2 24.9-5.9 24.9-5.9s8.8-16.9 10.8-19.6 24.2 3.3 24.2 3.3l31.6 10.8 14.8-23.1 22.2-5.6 25.6 17.8-11.4 49.1 35 2.9s22.9-4.1 22.9-6.1 20.9-23.7 20.9-23.7l13.5-25.5s5.4-20.2 8.8-22.2 42.9-16.7 43.1-16.7 21.6-15 23.6-17 44.4-1.3 48.4 0c3.9 1.5 25.6 6.5 25.6 6.5z"/>
    <path id="XMLID_17_" class="st2" d="M652.4 62.3l-4.3.3-18.9-7.6L617 42.5l-2.5-.3-4.2.1-16.4-8.1-16.3-.4-37.7-21.7h-1.4l-21.3 16.5L499.1 39l-6.7 8.2-23.1 18.3-5 8.7-16.6 5.4c.8 24.9 3.5 67.9 3.5 67.9s23.7-39.2 28.1-39.6c4.3-.5 33.1 6.6 33.1 6.6l12.2-6.6s31.7-24.1 32.4-28.1c.7-4 26.9-9.9 26.9-9.9L629.1 83l38.6 8.3 28.6-3.7-34.9-19-9-6.3z"/>
    <path id="XMLID_16_" class="st3" d="M217.2 186l7.8-2.8 13.9 7.2 17.8-2.8S268.9 167 270 164s11.7-16.4 11.7-16.4l21.1-5 47.4-67.1-6.5 1-24.6-6.5-6.5 7.2h-7.5l-6.5-3.6-7.5 8.6-11.7-5.8-62.6 64.2-15.3 54.8 15.7-9.4z"/>
    <path id="XMLID_15_" class="st3" d="M298.4 207.1s12.8-63.4 13.3-65.1c.6-1.7 9.5-14.5 9.5-14.5v62.8l-2.8 12.4-20 4.4z"/>
    <path id="XMLID_14_" class="st3" d="M331.2 195.5c-.6-3.3 0-79 0-79l32.3-31.1 8.3-4.5v51.8l13.9 22.4s3.9 22.5 3.9 24.2c0 1.7-5 23.5-5 23.5l-20.6-7.4 6.7-40.3-7.2-22.4-8.9 14.3-12.2 40.6-11.2 7.9z"/>
    <path id="XMLID_13_" class="st3" d="M0 189.5l52.6-34.3 17.2-22.4 18.6-35.5L0 176.6z"/>
    <path id="XMLID_12_" class="st3" d="M539.9 12.2h-1.4l-21.2 16.5-18.1 10.5-6.7 8.2-23.1 18.3-4.9 8.7L438 83l-7.6-2.3-5.8.8-20.3 4.1-26.3-6.7 9.4 6.4 46.2 37.9 17.8 24.4 7.7-43.9 4.5-22.8 62.3-25z"/>
    <path id="XMLID_11_" class="st3" d="M543.1 24.7l17.3 12.8-35.1 53.4-12.8 9.5V74.8l30.1-24 5.5-12.2z"/>
    <path id="XMLID_10_" class="st3" d="M643.8 65.9l-9.5-2.2-16.7 17.2-7.2-34.5-33.4-3.9-6.1 20S567 77 567.6 79.9c.6 2.9-8.9 13.8-9.5 17.4-.6 3.6-18.2 40.9-18.2 40.9l-15.2 40 17.8-23.1L577 97.3l7.8-12h18.9l17.8 12s-21.1 37.5-21.7 39.2c-.6 1.7-33.9 31.7-35.6 30.9-1.7-.8-15.6 2.5-15.6 2.5l-23.9 16.8 28.4-5.7s17.2 6.7 19.5 5.6c2.2-1.1 22.2-13.9 22.2-13.9s35.6-46.2 36.7-47.8c1.1-1.7 12.2-11.6 12.2-11.6v-12.9-11.7L631 80.9l12.8-15z"/>
    <path id="XMLID_9_" class="st3" d="M472.5 85.3l21.7-9.5 9.5 18.9 4.4 32.8-9.5-13-3.3-14.2-10-6.1s-5.6 8.3-5.6 10-7.2 76.8-7.2 76.8l-9.5 3.3-6.7 35-9.5-3.9-15-12.6 12.8-16.1c4.4 3.2 16-17.8 16-17.8L470 112l2.5-26.7z"/>
    <path id="XMLID_8_" class="st3" d="M570.4 239.4c1.7-1.1 36.7-36.6 36.7-36.6l2.2-33-25 16.8s-10.6 15.2-10.6 16.1-3.3 36.7-3.3 36.7z"/>
    <path id="XMLID_7_" class="st3" d="M655.5 127.6c1.1.6 29.5 48.9 29.5 48.9l-14.7 10.1s-19.7-14-19.7-16.8c-.1-2.7 4.9-42.2 4.9-42.2z"/>
    <path id="XMLID_6_" class="st3" d="M575.4 271.7l102.3-52.3 36.7-45.6s-.6 15.6 0 17.8 2.2 10.6 2.2 13.1 4.5 11.4 5 14.7c.6 3.3-1.7 16.1 0 18.4 1.7 2.2 9.5 27.3 9.5 27.3s-18.9 6.7-20.6 6.7-66.7 14.5-66.7 14.5-38.4-3.3-41.7 0c-3.3 3.3-16.7 18.4-17.8 18.9-1.1.6-13.9-14.5-13.9-14.5l5-19z"/>
    <path id="XMLID_5_" class="st3" d="M772.3 130.7l-6.1 11.2-7.8 5.8h-27.3s-.6 7.1 0 9.5c.6 2.4-9.5 12.7-9.5 12.7l16.7 3.9h41.2l12.2 4.4-7.2-10.8-8.3-30.3h1.7c1.7 0 24.1 23.9 24.1 23.9v-18.5l18.4-15.5 6.5-22.8 7.5-21.1L813 97.4l-17.7 3.1-12.8 5.6 3.8 12.6-14 12z"/>
    <g id="XMLID_22_">
      <path id="XMLID_4_" class="st3" d="M975.3 128.6l-19.5-13.3-17.8-7.2s-25 12.8-28.9 15c-3.9 2.2-26.1 20-26.1 20l-36.8 35.7c14.6-4.6 30.2-9.6 30.2-9.6l35-8.9 29.5-11.7 41.7 5.6h10s-2.8-18.9-2.8-20.6c0-1.6-14.5-5-14.5-5z"/>
      <path id="XMLID_2_" class="st3" d="M1089.4 182.2l-21.1-27.3.6-8.9s7.2-22.2 2.8-25l-8.3 10.6s-21.7 25-22.8 27.3c-1.1 2.2-12.2 7.8-12.2 7.8s-12.2 10-13.3 11.7c-1.1 1.7-10.6 69.5-10.6 69.5l-22.8 15-4.4-6.7-26.1 4.4-13.3-8.3-7.8-4.5s-54 38.4-54 41.2h2.8l-10 16.1-11.7 16.7.6 18.9 43.9-22.2 31.7-17.8s19.5-20 21.1-21.7c1.7-1.7 17.8-11.7 17.8-11.7l30-3.3 31.1 15 17.2-6.1 42.8-37.3 1.7-30.6 9.5-11.1-6.1-7.2-9.1-4.5z"/>
    </g>
  </g>
  <g id="Layer_1">
    <linearGradient id="XMLID_54_" gradientUnits="userSpaceOnUse" x1="640" y1="157.218" x2="640" y2="316.695">
      <stop offset="0" style="stop-color:#add9e6"/>
      <stop offset="1" style="stop-color:#e9f5f8"/>
    </linearGradient>
    <path id="XMLID_3_" class="st4" d="M1252.5 188.8l-31.3-1.7-20.3.9s-7-4.2-8.2-4.1l-19.5 8.2-14-5.6-6.7-.8-10 2.6-20.2-5.5-26.2 7.3-17.3 1.4-31-5.9-20.3-13.1-27.3-6.2-12.2-4.6-3.8-.3-10.3 5-16.9-3.8-17.5 7.3-4.3 1s-3.7.2-6.8.4l-12-3.4-13.3 1-12.7-6.3-36 15.7-41.2 5.3-22-1.2-6.4.3-5.3-.3-9.5.6c-1.9-1.1-6.4-3.7-7.3-3.6l-6.1 2.6c-2.1-1.2-4.9-2.6-5.6-2.6l-13.8 5.8-8-3.2-6.7-.8-4.2 1.1-.8-.3-6.7-.8-4 1.1-14.5-3.9-5.8 1.6-5.9-1.6-26.2 7.3-9.2.8-27.5-5.2-20.3-13.1-27.3-6.2-12.2-4.6-3.8-.3-3.7 1.8-4.1-1.5-3.8-.3-14.8 7.2-6.2-1.6-6.1 1.4-5.6-1.4-16.3 3.8s-10.3.7-10.8.4c-.5-.3-4.8 1.4-4.8 1.4l-22.2 8.6-30.5 5.7-19.1 5.7s-8.3-2.4-9.3-2L381.3 199l-15.5-2.1-6.3.8-69.2-5-26-5.8-18-3.1-22.7 2.6-18-6.3-10-2.6-6.7-5.8-19.3 12.6-31.3-14.1-12.7 9.9L97 192.7l-21.3-12-16-2.6-14.7 2.6-20.7-13h-6.7L0 178v138.7h1280V185.4l-27.5 3.4z"/>
    <path id="XMLID_25_" class="st2" d="M1193.1 241.8c-44.1-.1-54.3-8.1-119.2-13.3-45.4-3.6-80.2-2.9-134.1-1.8-27.3.6-69.6 1.5-123.8 6.2-84.3 7.3-93.1 14.6-140.6 12.5-20-.9-43.8-4-91.3-10.2-48.8-6.4-56.6-8.8-80.1-10.2-40.5-2.4-68.1 2-99.6 5.3-84.8 9.1-157 6.9-191.8 5.8-50.3-1.6-49.9-4.7-171.3-12.9-14.9-1-28.8-1.9-41.3-2.7v357.2h1280v-346c-23.1 5.4-52.7 10.2-86.9 10.1z"/>
  </g>
  <g id="Layer_5">
    <linearGradient id="XMLID_55_" gradientUnits="userSpaceOnUse" x1="-12.424" y1="346.17" x2="1122.931" y2="346.17">
      <stop offset="0" style="stop-color:#add9e6"/>
      <stop offset="1" style="stop-color:#e9f5f8"/>
    </linearGradient>
    <path id="XMLID_21_" class="st5" d="M1066.1 386.7c2.9-1.3 24.6-11.4 30.6-4.7 1.6 1.8 1 3.7 4.7 13.6 2.8 7.3 4 8.5 5.1 9.3 4.6 3 9.6-.2 11.6 2.5 1.7 2.3-1.9 5.2-.9 10.2 1.1 5.5 6.3 6.6 5.8 9.3-.8 4.5-14.9 3-16.9 8.8-1.6 4.5 5.7 8.9 4 13.6-.9 2.4-3.6 3.3-10 5-15.6 4.1-23.4 6.2-27.6 4.2-2.6-1.2-5.8-5.1-12.1-12.8-5.3-6.5-6.6-9.1-10.1-10.4-5-1.9-10.4.3-14.2 2.4-2.3.2-5.7.8-9.7 2.1-7.2 2.4-8.2 4.7-13 6.2-10.9 3.5-21.8-3-22.5-3.4-5.9-3.6-4.8-6.2-10.9-10.5-8.5-6-17.9-6.2-20.8-6.2-15-.1-25 8.7-27.4 10.9-22.3-8.5-40.4-10.4-52.8-10.5-17.9-.1-21.6 3.4-36.1.6-19.5-3.8-34.5-14.4-43.1-20.6-14.7-10.7-11.6-12.6-21.2-18-17.3-9.8-25.4-2.5-55.1-9.2-19.5-4.4-10.5-4.5-27.2-6.6-17.1-2.1-38.7-3-47.8-2.1-10 1-37.3.3-76.1-4.4-102-12.4-221.5-50.5-221.5-50.5-53.9-16.1-53.2-16-95.8-27.4-18.3-4.9-73.4-19.2-147.4-30.1C53 250 7.5 264.9-6.7 244.2c-.5-.7-7.2-8.6-5-10.8 2.4-2.4 7.1 10.7 13.9 12.9 31.8 10.2 74.1 4.7 87.2 6.3 26.5 3.2 64.1 3 155 24.5 134.1 31.7 123.8 32.7 191 45.9C561.3 347.9 553 340.6 672 347c35.4 1.9 93.8 22.3 174.1 18.6 25.3-1.2 20.5-2.7 38-2.9 93.7-.8 137.8 43.9 182 24z"/>
  </g>
  <g id="Layer_4">
    <g id="XMLID_33_">
      <linearGradient id="XMLID_56_" gradientUnits="userSpaceOnUse" x1="951.299" y1="381.215" x2="984.108" y2="381.215">
        <stop offset="0" style="stop-color:#cedada"/>
        <stop offset=".998" style="stop-color:#e4ebeb"/>
      </linearGradient>
      <path id="XMLID_34_" class="st6" d="M973.1 391.4c-6.5-12.2-7-23.4-7.1-28.5-.1-4.1.1-7.6.5-10.4-1.2.3-3.5.6-8 1.3-.2 0-.4.1-.6.1-2 3-4.1 6.9-5.4 11.9-2.5 9.6-.5 17.4.4 20.6 3.2 11.8 11 19.5 16.5 23.7 1.6-.2 3.3-.5 5.1-.7 4.5-.5 6.9-2.1 9.7-3.3-3.8-3.7-7.8-8.5-11.1-14.7z"/>
      <linearGradient id="XMLID_57_" gradientUnits="userSpaceOnUse" x1="913.885" y1="349.644" x2="913.885" y2="412.701">
        <stop offset="0" style="stop-color:#acb2b2"/>
        <stop offset=".999" style="stop-color:#989f9f"/>
      </linearGradient>
      <path id="XMLID_59_" class="st7" d="M952.9 386.3c-.9-3.1-2.9-10.9-.4-20.6 1.3-4.9 3.3-8.9 5.4-11.9-1 .1-2.2 0-3.6-.3-.8-.2-2.4-1.5-2.4-1.5s.2 1.1-.3.9c-.4-.2-2.9-3-2.9-3s1.1 2.6.8 2.5c-.4-.1-3-2.9-3-2.9s1.3 2.6.9 2.6c-.5 0-4-2.4-4-2.4s2.2 2.9 1.9 3c-.4.1-3.1-1.9-3.1-1.9s1.2 2.2.7 2.5c-.4.2-4.4-2.3-4.4-2.3s2.6 3 2.4 3.1c-.4.2-4.9-2.6-4.9-2.6s2.5 3.3 2.1 3.4c-5.2 2.2-10.7 1.4-14.4 1.4-6.7-.1-14.2 2-20.6 4.5-.6.2-3.3-1.4-3.3-1.4s.9 2.4.5 2.5c-.6.3-4.3-.4-4.3-.4s1.2 1.8.5 2.1c-.4.2-2.6-.2-2.6-.2s.7 1.1.3 1.3c-.9.4-4.1-1.7-4.1-1.7s2.1 1.9-1.3 3c-.7.2.1 1.3-.4 1.6-2.9 1.5-32.5 18-29.8 28.2.7 2.7 12.3 10.4 19.9 8.9 4.3-.8 7-2.6 11.5-2.1 1 .1 1.8.2 2.5.4-.1-1.7-.6-3.7-1.5-5.8-2.8-6.1-8.3-7.7-7.7-9.5.6-1.8 6.7-2.4 11.5 0 2.5 1.3 4.4 3.2 7.7 8.9 1.6 2.7 3.5 6.2 5.4 10.6 3.7.3 5.4-2.5 12-1.8 4.6.4 8.5-.7 11.4-.5 4.8.4 5.3 7.8 11.1 7.7 12.4-.3 18.7-1.6 26.9-2.8-5.4-4.1-13.2-11.8-16.4-23.5z"/>
      <linearGradient id="XMLID_58_" gradientUnits="userSpaceOnUse" x1="965.917" y1="330.006" x2="1058.65" y2="330.006">
        <stop offset="0" style="stop-color:#acb2b2"/>
        <stop offset=".999" style="stop-color:#989f9f"/>
      </linearGradient>
      <path id="XMLID_63_" class="st8" d="M999.2 388.7c1.1-.7 3.9-1.8 18.8 6.3 11.9 6.5 18.4 11.8 19.4 10.7.9-1-3.4-6.4-4-7.1-3.5-4.3-6.8-6.8-14.4-12.5-7.5-5.6-11.3-8.4-11.1-10.7.2-2.5 3.2-4.8 5.9-5.3 5.3-1.1 10.2 3.8 14 7.7 10 10.1 10 18.4 18 20.8.6.2 5 1.5 6.5-.4 1.3-1.6-.3-4.9-1.2-6.7-1-2-2.2-3.7-6.5-8.3-4.6-4.9-5.8-5.7-5.5-7.1.4-2.4 4.4-4 7.3-4.4 2.9-.3 3.7.8 6.5.2.8-.2 4.7-.9 5.5-3.2.7-1.9-1.3-3.8-8.9-12.3-7.3-8.1-7.3-8.5-9.3-9.9-4.1-2.8-6.7-2.9-7.5-5.5-.4-1.1-.2-2 0-2.9-1.4-1-3-2.3-4.4-4.1-4.1-5.1-4.5-10.7-4.7-14.4-.2-2.5-.5-7.5 1.8-13.1 1.7-4.1 4.6-8.1 4.7-8.3 2.4-3.2 3.7-3.9 4.4-6.3.4-1.3.4-2.7.3-3.9l-.3-.9v-.1c-.1-.4-.2-.8-.2-1.1-.2-.9-.2-1.5-.2-1.5s.2.5.4 1.3c.3-.5.6-.9.8-1.5 1-2.2.6-3.5 1-5.5.9-5.3 4.6-5.2 8.3-12.1 2.5-4.6 2.3-7.2 4.9-8.3 2.3-1 4.6.1 4.7.2.8.4 1.4.9 1.8 1.5-.3-1.1-.8-2.3-1.4-3.5-.5-.8-1.3-2.5-3.7-2.5-2.1 0-6.7 6.7-7.9 8.8-5 8.4-9 15.1-13.7 21.3-2.7 3.6-12.5 10.8-15.1 15.4-.5.9-4.5-.7-4.5-.7s3.8 3.7 3.2 4.4c-.4.4-2-.7-2-.7s1.4 1.4 1.1 1.7c-.5.6-3.5-1.2-3.5-1.2s3 2.6 2.6 3.1c-.3.4-2.3-.4-2.3-.4s1.8 1 1.6 1.3c-.5.8-2.6.5-2.6.5s2.2 1.1 2 1.8c-.2.6-4.2.8-4.2.8s3 2.4 2.8 3.3c-.6 3-.8 3.1-1.9 5.8-.6 1.4-1.3 2.3-2.1 2.9-.5.4-4.9-2.8-4.9-2.8s3.8 3.7 3.3 3.8c-.4.1-3.3-1.5-3.3-1.5s1.9 1.7 1.4 1.9c-.4.2-3-1.6-3-1.6s1.5 1.9 1.2 2.1c-.3.2-3.8-1.8-3.8-1.8s2.4 2.9 2.1 3.1c-.4.3-3.4-1.2-3.4-1.2s1.9 2.8.8 3.7c-4.5 3.3-9.4 12.2-14.1 16.4-.7.6-3.1-.6-3.1-.6s2.5 2 2.3 2.1c-.4.2-2.4-.5-2.4-.5s1.1 1.3.6 1.2c-.4 0-4.7-2.2-4.7-2.2s2.9 2.6 2.4 2.7c-.4.1-3-.7-3-.7s1.4 1.3 1.1 1.5c-.5.3-5.5-2-5.5-2s2.4 2.7 2.2 2.9c-.2.2-4.7-1.7-4.7-1.7 2.3 2.8 1.9 4.2 1.7 4.6-.2.5-.5.7-1.5.9-.3 2.8-.6 6.4-.5 10.4.1 5.1.6 16.3 7.1 28.5 3.3 6.2 7.3 11 11 14.6 1.7-.7 3.6-1.2 6.3-1.2 1.4 0 2.7.2 3.8.6.1-.9.2-2 .4-3.1 1.5-7.1 2.2-11.8 5-13.5zm1-58c1-2.4 4-3.7 6.3-3.8 4-.2 6.5 3 7.5 2.2.9-.7-1-3.2-1.8-7.3-.9-4.5.3-8.3 2.8-16 1.2-3.7 1.8-4.8 2.8-4.9 1.6-.3 3.4 2.1 4.2 4.2 1.5 4.1-.8 8.9-2.2 8.9-1 0-1.4-2.5-2.2-2.4-.8.1-1.3 3.1-1.2 5.9 0 1.7.3 5 3.8 13.1 2.4 5.7 3.6 8.5 5.3 10.1 2.7 2.5 5.1 2.9 6.3 5.9.1.2 1.6 3.9 0 5.5-1.9 2-8.2.7-11.9-2.8-1.8-1.8-2.6-3.7-4.4-3.8-1.6 0-1.9 1.6-3.6 2-3.6.9-8.1-5.3-10.1-9.1-1.4-2.9-2.7-5.3-1.6-7.7zm-14.5 26.9c-.4-1.8-2.2-8.9 2-13.1 1.8-1.9 5.2-3.5 7.5-2.4 3.1 1.6.9 6.6 4.5 9.9 3 2.7 6.8 1.2 8.1 4 .7 1.5.5 3.6-.6 4.5-1.3 1.2-3-.3-6.5.2-.9.1-4.6.6-5.5 2.6-1.7 3.4 6 9.5 5.5 10.1-.5.6-12.3-4.7-15-15.8z"/>
      <linearGradient id="XMLID_60_" gradientUnits="userSpaceOnUse" x1="883.222" y1="396.813" x2="907.885" y2="396.813">
        <stop offset="0" style="stop-color:#cedada"/>
        <stop offset=".998" style="stop-color:#e4ebeb"/>
      </linearGradient>
      <path id="XMLID_65_" class="st9" d="M894.7 387.9c-4.8-2.4-10.9-1.8-11.5 0-.6 1.8 4.9 3.4 7.7 9.5 1 2 1.4 4 1.5 5.8 5 1 4.3 2.8 15 4.2h.4c-1.9-4.3-3.8-7.9-5.4-10.6-3.3-5.7-5.1-7.7-7.7-8.9z"/>
      <linearGradient id="XMLID_66_" gradientUnits="userSpaceOnUse" x1="1028.438" y1="289.285" x2="1094.696" y2="289.285">
        <stop offset="0" style="stop-color:#acb2b2"/>
        <stop offset=".999" style="stop-color:#989f9f"/>
      </linearGradient>
      <path id="XMLID_29_" class="st10" d="M1083.5 306.5c-1.1-5.4-.5-8.8-2.3-12.5-.1-.2 0-2 0-2s-.9 1.5-1.3 1.1c-.2-.2-.2-1.9-.2-1.9s-.8.9-1.2.5c-.2-.2-.1-1.6-.1-1.6s-.7.6-1 .2c-.3-.3 0-2.6 0-2.6s-1 1.9-1.2.9c-.5-2.1-2.8-4.4-3.5-4.9-2.2-1.8-2.9-.7-4-2.1-1-1.3 0-3.6.7-5.3 1-2.7 1.4-3.8 2.6-6.7 1.1-2.5 2.6-16.8.3-14.5-4.8 8.9-12.6 23.7-14.6 21.4-.3-.4-.5-.9-.7-1.4-.4 1.3-.5 2.7.1 3.7.9 1.4 2.8 1.5 2.8 2.2-.1.8-3 .5-5.5 2-2.8 1.6-2.6 4.7-4 4.7-.4 0-1-.3-1.7-1.3-.3.4-.6.6-.7.6-.2-.1-.2-.7 0-1.9.1-.8.2-1.7.4-3 .9-7.7.3-8.8-.4-9.3-1.1-.8-2.3.3-3-.4l-.1-.1c-1.6 1.5-2.1 2.9-2.2 3.8-.1 1.2.4 1.6.4 3.3.1 2.2-.6 3.2-.8 4.5-.2 1.2.1 2.9 1.5 5.1-.2-.9-.4-1.6-.1-1.8.8-.4 4.2 2.4 3.8 4.9-.1.7-.6 1.5-4.2 3.6-4.7 2.8-5.9 2.6-8.1 4.4-2.1 1.7-3 3.6-4.2 5.7-.8 1.6-2.6 5-2.8 9.3-.1 3.5.8 6.5 2 8.9.9-1.2 2.5-2.8 5-5.9 4.8-6 4.2-6.9 6.3-7.9 3-1.5 4.2.4 11.5-.4 3-.3 5.1-.9 7.1-1.4 2.7-.7 5.4-1.6 8.1-3.4 2.4-1.5 2.7-2.4 2.8-2.8.4-2-1.8-3.1-1.4-5.1.3-1.4 1.8-2.9 3.2-3 2.2-.1 4 3.3 6.5 8.3 2 3.9 1.6 3.9 3.2 6.9 1.9 3.6 3.7 6.9 7.3 9.1 1.1.7 2.6 1.4 4.7 1.9-4.9-4.4-9.8-7.9-11-13.8zm-19.2-16.6c-3.3-1-3.8-3.4-5.7-3.2-2.3.3-4.5 4.1-3.8 6.7.5 1.7 2 2.1 1.8 3.2-.2 1.2-2.2.9-4.5 2.8-1.9 1.5-1.6 2.5-3.2 3.6-2.3 1.5-6 1.4-6.5.2-.6-1.3 2.9-2.6 6.5-7.7 2.8-3.9 2.6-5.9 5.9-9.1 2.6-2.5 4.2-2.7 4.9-2.8 1.4-.1 2 .4 5.1 2 5.1 2.5 6.6 2.8 6.5 3.4 0 .9-3.7 2-7 .9z"/>
      <path id="XMLID_24_" class="st11" d="M1057.1 278.7c-.6-1-.6-2.3-.1-3.7-.7-3.1 1.1-8.9-.8-15.1-.5-.6-1.1-1.1-1.8-1.5-.1-.1-2.4-1.2-4.7-.2-2.7 1.1-2.5 3.7-4.9 8.3-3.7 6.9-7.4 6.8-8.3 12.1-.4 2.1 0 3.3-1 5.5-.2.5-.5 1-.8 1.5.1.6.3 1.4.4 2.3 1.2 3.6 3.2 4.9 3.2 4.9 1.7 1 4.6 1.3 5.7 0 .9-1.1.5-2.8.1-4.2-1.5-2.2-1.7-3.9-1.5-5.1.2-1.3.8-2.3.8-4.5 0-1.8-.5-2.2-.4-3.3.1-1 .5-2.3 2.2-3.8-1.4-1.9 3-10.4 5.4-10 2.5.5 2.4 10.1 2.4 10.9 0 2.2-.3 5.2-1.6 8.5-.7 1.9-1.7 3.8-2.5 4.8.7 1.1 1.2 1.4 1.7 1.3 1.3 0 1.2-3.2 4-4.7 2.6-1.5 5.5-1.2 5.5-2-.1-.5-2.1-.6-3-2z"/>
      <path id="XMLID_71_" class="st12" d="M1034.2 284.4s0 .6.2 1.5c.1-.1.1-.2.2-.3-.2-.7-.4-1.2-.4-1.2z"/>
      <linearGradient id="XMLID_67_" gradientUnits="userSpaceOnUse" x1="1023.588" y1="312.523" x2="1047.682" y2="312.523">
        <stop offset="0" style="stop-color:#cedada"/>
        <stop offset=".998" style="stop-color:#e4ebeb"/>
      </linearGradient>
      <path id="XMLID_26_" class="st13" d="M1043.9 287c-.3.2-.1.9.1 1.8.4 1.3.8 3.1-.1 4.2-1.2 1.3-4 1-5.7 0 0 0-2-1.2-3.2-4.9.1 1.2 0 2.5-.3 3.9-.7 2.5-1.9 3.1-4.4 6.3-.2.2-3.1 4.2-4.7 8.3-2.3 5.6-2 10.6-1.8 13.1.3 3.7.7 9.3 4.7 14.4 1.4 1.8 3 3.1 4.4 4.1.5-1.7 1.6-3.4.9-5.8-.9-3.4-3.9-3.4-4.2-6.1-.1-.9.2-1.6.8-2.4-1.2-2.3-2.1-5.4-2-8.9.2-4.3 1.9-7.7 2.8-9.3 1.1-2.2 2.1-4 4.2-5.7 2.2-1.8 3.4-1.6 8.1-4.4 3.6-2.1 4-2.9 4.2-3.6.4-2.6-3-5.5-3.8-5z"/>
      <linearGradient id="XMLID_68_" gradientUnits="userSpaceOnUse" x1="1067.062" y1="404.692" x2="1081.755" y2="404.692">
        <stop offset="0" style="stop-color:#cedada"/>
        <stop offset=".998" style="stop-color:#e4ebeb"/>
      </linearGradient>
      <path id="XMLID_73_" class="st14" d="M1068.2 395.8c-.6.3-.7 1.3-1.1 13.1-.1 1.6-.1 3.2-.1 4.8 4.1-.7 7.2-.6 8-.9 2.4-.8 4.8-1.5 6.7-2.5-8.9-13.1-12.2-15.1-13.5-14.5z"/>
      <path id="XMLID_30_" class="st15" d="M1091.7 361c-.5.1-1.1.1-1.7-.1-.2 0-.4-.1-.6-.2-1.8-.6-2.8-2.2-5.2-4.6-.6-.6 0 0-4.9-4.2-9.4-7.9-8-7.2-9.9-8.5-4.3-2.9-6.8-3.4-7.5-6.1-.1-.2-.5-2 .4-3.8.1-.2.3-.4.4-.7.3-.5.8-.9 1.2-1.2-2-1-3.5-1.3-4.8-.7-1.3.6-2.4 2.2-2.6 3.8-.5 5.3 8.8 10.7 10.3 11.5 3.6 2 5.9 2.4 7.1 4.9 1 2 .4 3.3 1.6 5.1 1.3 2 3.3 2.4 5.9 3.4 1.9.8 4.5 2 7.5 4.1.6-.2 1.2-.3 1.7-.4.6-.1 1.1.3 1.1.8 0 .2.1.5.2.8.1-1 .1-2.4-.2-3.9z"/>
      <path id="XMLID_75_" class="st16" d="M1086.6 357.1c.2.4 1.2.2 1.7.1.7-.2 1.1-.5 1.2-.4.2.2-1.1 1.8-.9 2.1.2.2 1-.6 1.3-.4.2.1.2.8-.5 2.4.2.1.4.1.6.2.6.1 1.2.1 1.7.1-.1-.3-.1-.6-.2-.9-.5-2-1.2-4.9-3.5-6.7 0 .3 0 .7-.1 1-.4 1.2-1.6 2-1.3 2.5z"/>
      <linearGradient id="XMLID_69_" gradientUnits="userSpaceOnUse" x1="1086.689" y1="406.323" x2="1015.8" y2="335.434">
        <stop offset="0" style="stop-color:#ecf1f1"/>
        <stop offset=".998" style="stop-color:#f7f9f9"/>
      </linearGradient>
      <path id="XMLID_78_" class="st17" d="M1098.7 339c-.3-.7-1.1-2.8-.2-4 .6-.8 1.5-.3 3.4-1 2-.7 2.3-1.8 3.8-2.4.5-.2 1.1-.4 1.9-.4-2.3-1.8-5.2-4-8-6.9-1.5-1.6-3.2-3-4.8-4.3-2.1-.4-3.6-1.2-4.7-1.9-3.6-2.2-5.4-5.5-7.3-9.1-1.6-3-1.2-3-3.2-6.9-2.6-5-4.3-8.4-6.5-8.3-1.4 0-2.9 1.5-3.2 3-.4 2 1.8 3.2 1.4 5.1-.1.4-.4 1.2-2.8 2.8-2.7 1.7-5.4 2.7-8.1 3.4-2 .5-4.1 1.1-7.1 1.4-7.2.8-8.4-1.1-11.5.4-2.2 1-1.6 2-6.3 7.9-2.5 3.1-4.1 4.7-5 5.9-.6.9-.9 1.5-.8 2.4.3 2.7 3.2 2.7 4.2 6.1.7 2.5-.4 4.1-.9 5.8-.3.9-.4 1.8 0 2.9.9 2.6 3.4 2.8 7.5 5.5 2 1.4 2 1.7 9.3 9.9 7.6 8.5 9.6 10.3 8.9 12.3-.8 2.3-4.7 3-5.5 3.2-2.9.6-3.7-.5-6.5-.2-2.9.3-6.9 2-7.3 4.4-.2 1.4.9 2.2 5.5 7.1 4.4 4.7 5.6 6.3 6.5 8.3.9 1.8 2.5 5.1 1.2 6.7-1.5 1.9-5.9.6-6.5.4-8-2.4-8-10.6-18-20.8-3.9-3.9-8.8-8.8-14-7.7-2.8.6-5.7 2.8-5.9 5.3-.2 2.3 3.6 5.1 11.1 10.7 7.6 5.7 11 8.1 14.4 12.5.5.7 4.9 6.1 4 7.1-1 1.1-7.5-4.1-19.4-10.7-14.9-8.2-17.7-7-18.8-6.3-2.8 1.8-3.5 6.5-4.5 13.6-.2 1.1-.3 2.1-.4 3.1 1.2.4 2.2 1.2 2.6 2.4.7 2.3-2 4.8-1.1 7 .7 1.8 4.5 3.3 7 4.6 5.6 2.7 8.5 5.6 10.8 10.3 0 0 11.8 1.4 16.9-2.1 3-2.1 2.1-1.3 6.1-5.4 1.6-1.7 5.9-5.3 13-6.7 5.1-1 5.1 1.8 13.2-.7 1.5-.5 3-.8 4.4-1 0-1.6 0-3.2.1-4.8.4-11.9.5-12.9 1.1-13.1 1.3-.6 4.6 1.5 13.5 14.5 2.2-1.1 3.9-2.5 4.6-4.5 1.1-3.6-2.9-7-5-10.2-2.9-4.3-4.6-5.2-5.7-9-.8-2.8.9-3.2-.1-6.7-1.2-4-3.4-6.7-2.8-8.7.7-2.1 1 1.6 2.9-3.6 1.3-3.4-4-7.8-5.1-8.7l-.2-.2.2.2c.7.5 2.9 2.2 5.9 3.6 1 .5 4.9 2.3 7.3 2.4 1.5 0 3.5-.6 5.2-1-2.9-2.1-5.5-3.3-7.5-4.1-2.6-1-4.6-1.4-5.9-3.4-1.2-1.8-.6-3.2-1.6-5.1-1.3-2.6-3.5-2.9-7.1-4.9-1.4-.8-10.8-6.2-10.3-11.5.2-1.6 1.2-3.1 2.6-3.8 1.3-.6 2.8-.3 4.8.7.4.2.9.4 1.3.7 4.6 2.6 7 5.1 9.5 7.1 1.1.9 2.2 1.7 3.2 2.4 4.6 3.1 8.9 4.5 10.8 5.1 1 .3 2.1.6 3.4.9-.1-.2-.2-.4-.2-.7 0-1.5 2.6 0 5.6-.2 2-.1 5.9-1 8-2 .1 0 .2-.1.3-.1-1-.3-2-.8-3-1.4-1.6-.8-3.6-2.1-4.6-4.6zm-21-23.7c-2.5 2.4-12-3.8-11.5-5.1.2-.5 0-.4 7.7.8 1.7.3 3.6.5 4.2 1.8.4.7.2 1.9-.4 2.5z"/>
      <path id="XMLID_81_" class="st15" d="M1107.5 331.3c-.8 0-1.4.2-1.9.4-1.5.6-1.7 1.7-3.8 2.4-1.8.7-2.7.2-3.4 1-.9 1.1-.1 3.3.2 4 1 2.5 3 3.8 4.2 4.5 1 .7 2.1 1.1 3 1.4 2.7-1.4 3.8-1 4.7-4.3.5-.5 1.2.2 1.9-2 .9-2.7-1.4-4.7-4.9-7.4zm-.4 9.9c-.6.3-1.2.2-1.9 0-.6-.1-1.1-.2-1.2-.6-.2-.6.9-1.6 1.8-2.1.5-.3 1.3-.7 1.8-.4.6.5.5 2.5-.5 3.1z"/>
      <path id="XMLID_82_" class="st16" d="M1062.7 333c.4.5.6 1 .8 1.4.3.8.3 1.4.7 1.6.8.3 1.5-1.4 2.5-1.2.6.1 1 1 1.1 1.7.1 1.3-1.1 2.2-.9 2.4.2.2 1.4-.9 1.8-.7.6.4-.8 3-.3 3.3.3.2 1.1-.9 1.7-.7.6.2.2 1.5 1.1 3 .5.9 1.5 1.8 2.3 1.7.8-.2 1-1.5 1.3-1.4.4.1.1 1.6.9 3.2.1.1.9 1.8 1.7 1.7.8-.1 1-1.7 1.3-1.7.5.1.3 2.6 1 2.8.4.1.9-.7 1.2-.6.3.1 0 .9.2 1.8.3 1.1 1.2 2 2.2 2.4.5.2.9.3 1.3.2.6-.2.8-.9 1-1.6-.5-.1-1.1-.3-1.9-.9-2.1-1.3-3-3.2-4.2-5.3-.5-1-1.2-2.4-1.7-4.1-1.1-.7-2.1-1.5-3.2-2.4-2.5-2.1-4.9-4.5-9.5-7.1-.5-.3-.9-.5-1.3-.7-.4.3-.8.7-1.1 1.2z"/>
      <path id="XMLID_83_" class="st18" d="M1078 342c.6 1.7 1.2 3.1 1.7 4.1 1.1 2.2 2.1 4 4.2 5.3.8.5 1.4.7 1.9.9.6.2 1.2.3 2.1.9.1 0 .1.1.2.2 2.4 1.8 3.1 4.7 3.5 6.7.1.3.1.6.2.9.3 1.5.3 2.9.2 4.1.2.5.6 1.2 1.3 2.1h1.1s.3-.4 2.6-1.7c3.2-1.8 2.1-7.2 1.5-11.7-.7-4.6-5.2-4.3-6.2-5.8-1.3-.3-2.5-.6-3.4-.9-2.1-.6-6.3-2-10.9-5.1z"/>
      <path id="XMLID_84_" class="st11" d="M1084.7 353.9c-.4.2-.8 0-1.3-.2-1-.4-1.9-1.3-2.2-2.4-.2-.9.1-1.7-.2-1.8-.3-.2-.8.7-1.2.6-.7-.2-.5-2.8-1-2.8-.4-.1-.6 1.5-1.3 1.7-.8.1-1.7-1.5-1.7-1.7-.8-1.6-.5-3.2-.9-3.2-.4-.1-.5 1.2-1.3 1.4-.8.2-1.8-.8-2.3-1.7-.8-1.4-.4-2.8-1.1-3-.6-.2-1.3.9-1.7.7-.5-.3.9-2.9.3-3.3-.4-.3-1.6.9-1.8.7-.2-.2 1-1.1.9-2.4 0-.7-.5-1.5-1.1-1.7-1-.2-1.7 1.4-2.5 1.2-.4-.1-.4-.7-.7-1.6-.2-.4-.4-.9-.8-1.4-.2.2-.3.4-.4.7-.9 1.8-.5 3.5-.4 3.8.7 2.7 3.2 3.2 7.5 6.1 1.9 1.3.5.6 9.9 8.5 4.9 4.2 4.3 3.6 4.9 4.2 2.4 2.3 3.4 4 5.2 4.6.7-1.6.7-2.2.5-2.4-.3-.2-1.1.6-1.3.4-.2-.2 1.1-1.9.9-2.1-.1-.1-.5.2-1.2.4-.4.1-1.4.3-1.7-.1-.3-.5.9-1.2 1.2-2.7.1-.3.1-.7.1-1l-.2-.2c-.9-.6-1.4-.7-2.1-.9-.1.7-.4 1.4-1 1.6z"/>
      <linearGradient id="XMLID_70_" gradientUnits="userSpaceOnUse" x1="984.999" y1="357.629" x2="1008.302" y2="357.629">
        <stop offset="0" style="stop-color:#cedada"/>
        <stop offset=".998" style="stop-color:#e4ebeb"/>
      </linearGradient>
      <path id="XMLID_85_" class="st19" d="M1000.8 373.4c.5-.6-7.2-6.6-5.5-10.1.9-2 4.7-2.5 5.5-2.6 3.5-.5 5.2 1 6.5-.2 1.1-.9 1.3-3.1.6-4.5-1.4-2.8-5.1-1.3-8.1-4-3.7-3.3-1.5-8.3-4.5-9.9-2.3-1.2-5.7.5-7.5 2.4-4.1 4.2-2.4 11.2-2 13.1 2.6 11.1 14.4 16.4 15 15.8z"/>
      <linearGradient id="XMLID_72_" gradientUnits="userSpaceOnUse" x1="999.793" y1="326.915" x2="1032.536" y2="326.915">
        <stop offset="0" style="stop-color:#cedada"/>
        <stop offset=".998" style="stop-color:#e4ebeb"/>
      </linearGradient>
      <path id="XMLID_86_" class="st20" d="M1012 347.5c1.6-.4 2-2 3.6-2 1.8 0 2.5 2 4.4 3.8 3.6 3.5 9.9 4.8 11.9 2.8 1.6-1.7.1-5.4 0-5.5-1.3-3-3.6-3.4-6.3-5.9-1.7-1.6-2.9-4.4-5.3-10.1-3.5-8.1-3.7-11.4-3.8-13.1-.1-2.8.4-5.8 1.2-5.9.8-.1 1.2 2.4 2.2 2.4 1.4 0 3.6-4.8 2.2-8.9-.7-2-2.6-4.4-4.2-4.2-1 .2-1.6 1.3-2.8 4.9-2.4 7.7-3.6 11.6-2.8 16 .8 4.1 2.7 6.6 1.8 7.3-1 .8-3.5-2.4-7.5-2.2-2.4.1-5.3 1.4-6.3 3.8s.2 4.8 1.8 7.7c1.8 3.8 6.3 10 9.9 9.1z"/>
      <linearGradient id="XMLID_74_" gradientUnits="userSpaceOnUse" x1="1044.712" y1="274.415" x2="1052.786" y2="274.415">
        <stop offset="0" style="stop-color:#cedada"/>
        <stop offset=".998" style="stop-color:#e4ebeb"/>
      </linearGradient>
      <path id="XMLID_23_" class="st21" d="M1050.4 262.1c-2.5-.5-6.8 8.1-5.4 10l.1.1c.7.7 1.9-.4 3 .4.6.5 1.3 1.6.4 9.3-.2 1.3-.3 2.3-.4 3-.2 1.3-.2 1.8 0 1.9.2.1.4-.2.7-.6.7-.9 1.7-2.9 2.5-4.8 1.2-3.3 1.5-6.3 1.6-8.5-.1-.7 0-10.4-2.5-10.8z"/>
      <linearGradient id="XMLID_87_" gradientUnits="userSpaceOnUse" x1="1042.237" y1="293.87" x2="1071.378" y2="293.87">
        <stop offset="0" style="stop-color:#cedada"/>
        <stop offset=".998" style="stop-color:#e4ebeb"/>
      </linearGradient>
      <path id="XMLID_88_" class="st22" d="M1054.8 286.4c-3.3 3.2-3.2 5.2-5.9 9.1-3.6 5.1-7.1 6.4-6.5 7.7.5 1.2 4.2 1.3 6.5-.2 1.6-1.1 1.2-2 3.2-3.6 2.3-1.8 4.3-1.6 4.5-2.8.2-1.1-1.3-1.5-1.8-3.2-.8-2.6 1.4-6.4 3.8-6.7 1.9-.2 2.4 2.1 5.7 3.2 3.3 1 7 0 7.1-1 .1-.6-1.4-.8-6.5-3.4-3.1-1.5-3.8-2-5.1-2-.8.2-2.4.4-5 2.9z"/>
      <path id="XMLID_89_" class="st15" d="M1073.9 310.9c-7.7-1.2-7.5-1.3-7.7-.8-.5 1.3 8.9 7.5 11.5 5.1.6-.6.8-1.8.4-2.6-.6-1.2-2.4-1.4-4.2-1.7z"/>
      <path id="XMLID_90_" class="st23" d="M1107.5 338.1c-.5-.3-1.3.1-1.8.4-.9.5-2 1.5-1.8 2.1.1.3.5.4 1.2.6.7.2 1.4.3 1.9 0 1.1-.6 1.2-2.6.5-3.1z"/>
    </g>
    <g id="XMLID_35_" class="st0">
      <linearGradient id="XMLID_91_" gradientUnits="userSpaceOnUse" x1="1067.158" y1="311.952" x2="1077.6" y2="311.952">
        <stop offset="0" style="stop-color:#ecf1f1"/>
        <stop offset=".998" style="stop-color:#f7f9f9"/>
      </linearGradient>
      <path id="XMLID_36_" class="st24" d="M1072.8 312.8c0-.1.1-.3.2-.4-.1 0-.2-.1-.3-.1-.4-.1-5.3-2.1-5.4-1.7-.1.3 2.4 1.7 5.6 2.6-.2-.1-.2-.2-.1-.4z"/>
      <linearGradient id="XMLID_92_" gradientUnits="userSpaceOnUse" x1="1067.158" y1="313.836" x2="1077.6" y2="313.836">
        <stop offset="0" style="stop-color:#ecf1f1"/>
        <stop offset=".998" style="stop-color:#f7f9f9"/>
      </linearGradient>
      <path id="XMLID_37_" class="st25" d="M1077.6 314c0-.1-.2-.2-.7-.4v.5c.4 0 .7 0 .7-.1z"/>
      <path id="XMLID_40_" class="st26" d="M1076.9 313.6c-1-.3-2.8-.8-4-1.2-.1.1-.1.2-.2.4v.5c.8.2 1.7.5 2.6.6.1 0 .9.1 1.5.2.1-.2.1-.3.1-.5z"/>
    </g>
    <ellipse id="XMLID_31_" class="st27" cx="1075.5" cy="313.4" rx=".6" ry=".7"/>
  </g>
</svg>
